<mxfile host="65bd71144e">
    <diagram id="Fhd2kZDsbTJLgy30ommV" name="Page-1">
        <mxGraphModel dx="668" dy="423" grid="1" gridSize="10" guides="1" tooltips="1" connect="1" arrows="1" fold="1" page="1" pageScale="1" pageWidth="850" pageHeight="1100" math="0" shadow="0">
            <root>
                <mxCell id="0"/>
                <mxCell id="1" parent="0"/>
                <mxCell id="55" value="" style="rounded=0;whiteSpace=wrap;html=1;" vertex="1" parent="1">
                    <mxGeometry x="120" y="530" width="150" height="150" as="geometry"/>
                </mxCell>
                <mxCell id="54" value="" style="rounded=0;whiteSpace=wrap;html=1;" vertex="1" parent="1">
                    <mxGeometry x="120" y="110" width="150" height="380" as="geometry"/>
                </mxCell>
                <mxCell id="5" style="edgeStyle=none;html=1;exitX=0.5;exitY=1;exitDx=0;exitDy=0;entryX=0.5;entryY=0;entryDx=0;entryDy=0;entryPerimeter=0;" parent="1" source="3" target="4" edge="1">
                    <mxGeometry relative="1" as="geometry"/>
                </mxCell>
                <mxCell id="3" value="Note" style="rounded=0;whiteSpace=wrap;html=1;" parent="1" vertex="1">
                    <mxGeometry width="60" height="120" as="geometry"/>
                </mxCell>
                <mxCell id="4" value="vector" style="shape=cylinder3;whiteSpace=wrap;html=1;boundedLbl=1;backgroundOutline=1;size=15;" parent="1" vertex="1">
                    <mxGeometry y="200" width="60" height="80" as="geometry"/>
                </mxCell>
                <mxCell id="26" value="" style="endArrow=classic;html=1;" parent="1" edge="1">
                    <mxGeometry width="50" height="50" relative="1" as="geometry">
                        <mxPoint x="140" y="180" as="sourcePoint"/>
                        <mxPoint x="260" y="180" as="targetPoint"/>
                    </mxGeometry>
                </mxCell>
                <mxCell id="28" value="notes are stored in vector" style="text;html=1;strokeColor=none;fillColor=none;align=center;verticalAlign=middle;whiteSpace=wrap;rounded=0;" vertex="1" parent="1">
                    <mxGeometry x="40" y="150" width="60" height="30" as="geometry"/>
                </mxCell>
                <mxCell id="42" style="edgeStyle=none;html=1;exitX=0.5;exitY=1;exitDx=0;exitDy=0;entryX=0.5;entryY=0;entryDx=0;entryDy=0;" edge="1" parent="1" source="30" target="41">
                    <mxGeometry relative="1" as="geometry"/>
                </mxCell>
                <mxCell id="47" style="edgeStyle=none;html=1;exitX=1;exitY=0.5;exitDx=0;exitDy=0;" edge="1" parent="1" source="30">
                    <mxGeometry relative="1" as="geometry">
                        <mxPoint x="240.33333333333326" y="300" as="targetPoint"/>
                    </mxGeometry>
                </mxCell>
                <mxCell id="30" value="&lt;font style=&quot;font-size: 10px&quot;&gt;missed/hitted?&lt;/font&gt;" style="rhombus;whiteSpace=wrap;html=1;" vertex="1" parent="1">
                    <mxGeometry x="160" y="330" width="80" height="80" as="geometry"/>
                </mxCell>
                <mxCell id="46" style="edgeStyle=none;html=1;exitX=1;exitY=0.5;exitDx=0;exitDy=0;" edge="1" parent="1" source="31">
                    <mxGeometry relative="1" as="geometry">
                        <mxPoint x="200" y="219.90476190476193" as="targetPoint"/>
                    </mxGeometry>
                </mxCell>
                <mxCell id="31" value="1" style="whiteSpace=wrap;html=1;aspect=fixed;" vertex="1" parent="1">
                    <mxGeometry x="140" y="200" width="40" height="40" as="geometry"/>
                </mxCell>
                <mxCell id="32" value="2" style="whiteSpace=wrap;html=1;aspect=fixed;" vertex="1" parent="1">
                    <mxGeometry x="220" y="200" width="40" height="40" as="geometry"/>
                </mxCell>
                <mxCell id="40" style="edgeStyle=none;html=1;entryX=0.5;entryY=0;entryDx=0;entryDy=0;" edge="1" parent="1" target="30">
                    <mxGeometry relative="1" as="geometry">
                        <mxPoint x="200" y="220" as="sourcePoint"/>
                    </mxGeometry>
                </mxCell>
                <mxCell id="35" value="n" style="whiteSpace=wrap;html=1;aspect=fixed;" vertex="1" parent="1">
                    <mxGeometry x="140" y="240" width="40" height="40" as="geometry"/>
                </mxCell>
                <mxCell id="36" value="n" style="whiteSpace=wrap;html=1;aspect=fixed;" vertex="1" parent="1">
                    <mxGeometry x="220" y="240" width="40" height="40" as="geometry"/>
                </mxCell>
                <mxCell id="38" value="" style="curved=1;endArrow=classic;html=1;" edge="1" parent="1">
                    <mxGeometry width="50" height="50" relative="1" as="geometry">
                        <mxPoint x="260" y="170" as="sourcePoint"/>
                        <mxPoint x="140" y="170" as="targetPoint"/>
                        <Array as="points">
                            <mxPoint x="250" y="140"/>
                            <mxPoint x="170" y="130"/>
                        </Array>
                    </mxGeometry>
                </mxCell>
                <mxCell id="39" value="note loop(render/update)" style="text;html=1;strokeColor=none;fillColor=none;align=center;verticalAlign=middle;whiteSpace=wrap;rounded=0;" vertex="1" parent="1">
                    <mxGeometry x="120" y="80" width="150" height="30" as="geometry"/>
                </mxCell>
                <mxCell id="41" value="place in the pool" style="rounded=0;whiteSpace=wrap;html=1;" vertex="1" parent="1">
                    <mxGeometry x="140" y="440" width="120" height="40" as="geometry"/>
                </mxCell>
                <mxCell id="52" style="edgeStyle=none;html=1;exitX=0.5;exitY=1;exitDx=0;exitDy=0;entryX=0.5;entryY=0;entryDx=0;entryDy=0;" edge="1" parent="1" source="43" target="51">
                    <mxGeometry relative="1" as="geometry"/>
                </mxCell>
                <mxCell id="43" value="erased by the pool" style="ellipse;whiteSpace=wrap;html=1;aspect=fixed;" vertex="1" parent="1">
                    <mxGeometry x="160" y="540" width="80" height="80" as="geometry"/>
                </mxCell>
                <mxCell id="48" value="" style="endArrow=classic;html=1;" edge="1" parent="1">
                    <mxGeometry width="50" height="50" relative="1" as="geometry">
                        <mxPoint x="240" y="300" as="sourcePoint"/>
                        <mxPoint x="210" y="300" as="targetPoint"/>
                    </mxGeometry>
                </mxCell>
                <mxCell id="49" value="" style="endArrow=classic;html=1;" edge="1" parent="1">
                    <mxGeometry width="50" height="50" relative="1" as="geometry">
                        <mxPoint x="210" y="300" as="sourcePoint"/>
                        <mxPoint x="210" y="220" as="targetPoint"/>
                    </mxGeometry>
                </mxCell>
                <mxCell id="50" value="" style="endArrow=classic;html=1;" edge="1" parent="1">
                    <mxGeometry width="50" height="50" relative="1" as="geometry">
                        <mxPoint x="210" y="219.89999999999998" as="sourcePoint"/>
                        <mxPoint x="220" y="219.89999999999998" as="targetPoint"/>
                    </mxGeometry>
                </mxCell>
                <mxCell id="51" value="pool is clear" style="rounded=0;whiteSpace=wrap;html=1;" vertex="1" parent="1">
                    <mxGeometry x="140" y="640" width="120" height="40" as="geometry"/>
                </mxCell>
                <mxCell id="56" value="pool loop" style="text;html=1;strokeColor=none;fillColor=none;align=center;verticalAlign=middle;whiteSpace=wrap;rounded=0;" vertex="1" parent="1">
                    <mxGeometry x="170" y="500" width="60" height="30" as="geometry"/>
                </mxCell>
                <mxCell id="59" value="&lt;font style=&quot;font-size: 12px&quot;&gt;render/update&lt;/font&gt;" style="label;whiteSpace=wrap;html=1;image=img/clipart/Gear_128x128.png;fontSize=10;" vertex="1" parent="1">
                    <mxGeometry x="125" y="20" width="140" height="60" as="geometry"/>
                </mxCell>
                <mxCell id="60" value="read roll file" style="label;whiteSpace=wrap;html=1;image=img/clipart/Gear_128x128.png;fontSize=12;" vertex="1" parent="1">
                    <mxGeometry x="400" y="20" width="140" height="60" as="geometry"/>
                </mxCell>
            </root>
        </mxGraphModel>
    </diagram>
</mxfile>